# xmcd CD database file
#
# Track frame offsets:
#	150
#	18364
#	37329
#	56043
#	77925
#	96487
#	112474
#	134274
#	151861
#	168395
#	191075
#	211169
#	225396
#
# Disc length: 3305 seconds
#
# Revision: 0
# Processed by: cddbd v1.4PL0 Copyright (c) Steve Scherf et al.
# Submitted via: CDex 1.50beta9
#
DISCID=b70ce70d
DTITLE=Isin Karaca - Anadilim Ask
DYEAR=2003
DGENRE=Jazz
TTITLE0=Tutunamadim
TTITLE1=Yaz
TTITLE2=Baska Bahar
TTITLE3=Kalbim Agriyor
TTITLE4=Asktan N'Aber
TTITLE5=Cikita
TTITLE6=Bitmemis Tango
TTITLE7=Lamba
TTITLE8=Anadilim Ask
TTITLE9=Kan Tutmuyor
TTITLE10=Aramiza Yollar
TTITLE11=Dogum Günün Kutlu Olsun Oglum
TTITLE12=Tutunamadim (remix)
EXTD=YEAR: 2003
EXTT0=
EXTT1=
EXTT2=
EXTT3=
EXTT4=
EXTT5=
EXTT6=
EXTT7=
EXTT8=
EXTT9=
EXTT10=
EXTT11=
EXTT12=
PLAYORDER=
